<?xml version="1.0" encoding="UTF-8"?>
<svg id="Layer_1" data-name="Layer 1" xmlns="http://www.w3.org/2000/svg" xmlns:xlink="http://www.w3.org/1999/xlink" viewBox="0 0 16 16">
  <defs>
    <style>
      .cls-1 {
        fill: url(#linear-gradient);
      }
    </style>
    <linearGradient id="linear-gradient" x1=".15" y1="8" x2="15.85" y2="8" gradientUnits="userSpaceOnUse">
      <stop offset=".02" stop-color="#ff4184"/>
      <stop offset=".6" stop-color="#ff7437"/>
      <stop offset="1" stop-color="#ff9b00"/>
    </linearGradient>
  </defs>
  <path class="cls-1" d="M6.47,7.34l-.27,1.19c-.04,.17,.04,.35,.2,.43l7.13,3.76c-.14,.67-.29,1.35-.43,2.02-.16,.74-.88,1.22-1.61,1.07-3.45-.73-6.91-1.46-10.36-2.19-.67-.14-1.09-.8-.95-1.48,.62-2.94,1.25-5.89,1.87-8.83,.11-.5,.5-.89,1-.99C6.74,1.61,10.42,.9,14.1,.18c1.04-.2,1.93,.72,1.71,1.77-.09,.45-.19,.89-.28,1.34L6.7,7.07c-.12,.05-.2,.15-.23,.28Zm3.37,.99l4.19,2.03c.31-1.47,.62-2.94,.93-4.4l-5.1,2.02c-.16,.06-.17,.29-.02,.36Z"/>
</svg>