<?xml version="1.0" encoding="UTF-8"?>
<svg id="Layer_1" data-name="Layer 1" xmlns="http://www.w3.org/2000/svg" xmlns:xlink="http://www.w3.org/1999/xlink" viewBox="0 0 380 150">
  <defs>
    <style>
      .cls-1 {
        fill: url(#linear-gradient);
      }

      .cls-2 {
        fill: #fff;
      }
    </style>
    <linearGradient id="linear-gradient" x1="25.41" y1="74.89" x2="123.66" y2="74.89" gradientUnits="userSpaceOnUse">
      <stop offset=".02" stop-color="#ff4184"/>
      <stop offset=".6" stop-color="#ff7437"/>
      <stop offset="1" stop-color="#ff9b00"/>
    </linearGradient>
  </defs>
  <g>
    <path class="cls-2" d="M198.28,86.99c-1.56,3.68-3.86,6.51-6.91,8.49-3.05,1.97-6.65,2.96-10.79,2.96-4.88,0-8.89-1.53-12.02-4.58-3.13-3.05-4.7-6.94-4.7-11.68,0-2.84,.59-5.52,1.77-8.06,1.18-2.54,2.85-4.76,5.02-6.66,1.66-1.45,3.54-2.55,5.65-3.31,2.1-.75,4.35-1.13,6.75-1.13,4.94,0,8.98,1.51,12.12,4.52,3.13,3.01,4.7,6.9,4.7,11.66,0,.59-.03,1.25-.09,1.98-.06,.73-.17,1.53-.32,2.41h-27.45c.5,2.46,1.51,4.32,3.03,5.59,1.51,1.27,3.48,1.9,5.9,1.9,1.72,0,3.29-.34,4.69-1.02,1.4-.68,2.66-1.71,3.77-3.08h8.9Zm-25.43-9.98h18.87c-.59-2.11-1.69-3.75-3.31-4.92-1.62-1.17-3.62-1.75-5.99-1.75-2.17,0-4.1,.59-5.79,1.77-1.69,1.18-2.95,2.81-3.77,4.9Z"/>
    <path class="cls-2" d="M215.35,97.96h-8.08l-6.53-33.89h8.76l3.52,24.55,13.96-24.55h9.37l-21,33.89Z"/>
    <path class="cls-2" d="M227.34,96.91c-.75-.71-1.13-1.62-1.13-2.71,0-.32,.03-.66,.1-1,.19-.86,.59-1.66,1.18-2.39,.59-.73,1.32-1.31,2.18-1.74,.86-.43,1.78-.65,2.75-.65,1.27,0,2.28,.36,3.04,1.07,.75,.71,1.13,1.62,1.13,2.71,0,.3-.03,.64-.1,1-.3,1.36-1.02,2.49-2.16,3.41-1.14,.92-2.46,1.37-3.94,1.37-1.27,0-2.28-.36-3.04-1.07Z"/>
    <path class="cls-2" d="M241.14,97.96l9.63-45.39h17.54c3.98,0,7.13,.84,9.43,2.52,2.3,1.68,3.46,4.09,3.46,7.24,0,2.61-.69,4.93-2.08,6.98-1.39,2.05-3.31,3.53-5.77,4.46,1.74,.54,3.13,1.58,4.17,3.13,1.03,1.55,1.55,3.36,1.55,5.43,0,2.93-.79,5.59-2.37,7.98-1.58,2.39-3.74,4.26-6.46,5.62-2.73,1.36-5.71,2.04-8.97,2.04h-20.13Zm20.48-7.37c1.64,0,3.12-.39,4.46-1.18,1.34-.79,2.39-1.78,3.15-2.99,.76-1.21,1.15-2.4,1.15-3.59,0-1.51-.43-2.74-1.28-3.7-.85-.96-2.14-1.44-3.86-1.44h-11.11l-2.71,12.89h10.21Zm2.62-19.58c1.57,0,2.97-.36,4.2-1.08,1.23-.72,2.18-1.62,2.84-2.7,.67-1.08,1-2.11,1-3.1,0-1.23-.44-2.22-1.31-2.99-.87-.76-2.06-1.15-3.57-1.15h-9.5l-2.33,11.02h8.66Z"/>
    <path class="cls-2" d="M353.39,79.14l-33.21,14.16,1.91-9.11,21.36-8.4-17.74-8.44,1.71-7.93,27.18,14.09-1.21,5.62Z"/>
    <path class="cls-2" d="M311.38,64.65l2.64-12.3h9.15l-9.8,45.61h-15.77c-3.21,0-5.56-.25-7.06-.74-3.66-1.22-6.06-3.64-7.19-7.25-.77-2.45-.77-5.41-.03-8.89,1.23-5.72,4.1-10.17,8.61-13.33,2.94-2.07,6.55-3.11,10.82-3.11h8.62Zm-5.63,26.19l4.1-19.08h-6.62c-2.92,0-5.34,.97-7.27,2.91-1.65,1.67-2.76,3.81-3.32,6.41-.81,3.76-.31,6.46,1.5,8.09,1.25,1.11,2.92,1.67,4.99,1.67h6.62Z"/>
    <path class="cls-2" d="M158.51,52.26l-3.23,15.12c-1.12-1.53-2.56-2.72-4.31-3.57-1.76-.85-3.81-1.28-6.15-1.28-3.64,0-6.95,.97-9.93,2.92-2.98,1.95-5.33,4.46-7.03,7.54-1.7,3.08-2.55,6.24-2.55,9.47s.66,5.8,1.97,8.16c1.31,2.36,3.1,4.18,5.36,5.46,2.26,1.28,4.78,1.92,7.56,1.92,3.37,0,7.02-.85,9.32-2.73l-.58,2.73h8.08l.18-.84h.05l4.2-19.71v-.03l5.33-25.17h-8.28Zm-16.25,37.9c-1.51,0-2.91-.35-4.22-1.05-1.3-.7-2.35-1.7-3.13-3-.79-1.3-1.18-2.79-1.18-4.47,0-1.9,.47-3.71,1.42-5.44,.95-1.73,2.26-3.14,3.94-4.22,1.68-1.08,3.55-1.62,5.62-1.62,1.57,0,2.99,.34,4.25,1.02,1.26,.68,2.26,1.67,2.99,2.97,.73,1.3,1.1,2.85,1.1,4.64s-.45,3.52-1.36,5.25c-.9,1.73-2.18,3.16-3.81,4.26-1.64,1.11-3.51,1.66-5.62,1.66Z"/>
  </g>
  <path class="cls-1" d="M64.97,70.78l-1.68,7.43c-.24,1.08,.26,2.19,1.22,2.7l44.66,23.57c-.89,4.22-1.79,8.45-2.68,12.67-.98,4.65-5.52,7.65-10.1,6.68-21.62-4.57-43.25-9.13-64.87-13.7-4.19-.88-6.84-5.03-5.94-9.28,3.9-18.44,7.8-36.88,11.7-55.31,.67-3.15,3.15-5.6,6.27-6.21,23.06-4.47,46.12-8.94,69.18-13.41,6.5-1.26,12.1,4.52,10.71,11.06-.59,2.79-1.18,5.58-1.77,8.37l-55.26,23.67c-.73,.31-1.27,.97-1.45,1.75Zm21.11,6.23l26.22,12.68c1.94-9.19,3.89-18.38,5.83-27.57l-31.95,12.63c-1,.39-1.06,1.79-.11,2.25Z"/>
</svg>